<svg width="30" height="36" viewBox="0 0 30 36" fill="none" xmlns="http://www.w3.org/2000/svg">
<path d="M6.08365 3.75183C5.85069 1.22515 8.7026 -0.412123 10.7867 1.05183L16.4032 4.99713L22.7219 2.29921C25.0666 1.29811 27.5138 3.48921 26.7577 5.91252L24.7198 12.4432L29.2528 17.5852C30.9348 19.4931 29.5954 22.4846 27.044 22.5183L20.168 22.6092L16.6508 28.485C15.3457 30.6653 12.0707 30.323 11.25 27.9206L9.03822 21.446L2.33149 19.9356C-0.157125 19.3751 -0.841798 16.1721 1.20241 14.6535L6.71146 10.5612L6.08365 3.75183Z" fill="#7FE47E"/>
<path d="M24.582 26.6436C24.0866 25.7903 22.9893 25.4979 22.1312 25.9906C21.2731 26.4832 20.979 27.5743 21.4745 28.4276L25.0628 34.6077C25.5582 35.461 26.6555 35.7533 27.5136 35.2607C28.3717 34.768 28.6657 33.6769 28.1703 32.8237L24.582 26.6436Z" fill="#7FE47E"/>
</svg>
